<?xml version="1.0" encoding="utf-8"?>
<!-- Generator: Adobe Illustrator 25.2.1, SVG Export Plug-In . SVG Version: 6.00 Build 0)  -->
<svg version="1.1" xmlns="http://www.w3.org/2000/svg" xmlns:xlink="http://www.w3.org/1999/xlink" x="0px" y="0px"
	 viewBox="0 0 1080 1080" style="enable-background:new 0 0 1080 1080;" xml:space="preserve">
<style type="text/css">
	.st0{fill:#991B1E;}
	.st1{fill:#EA929D;}
	.st2{fill:#E7444F;}
	.st3{fill:#FFC82C;}
</style>
<g id="Layer_7">
</g>
<g id="Layer_5">
	<polygon class="st0" points="653,387.2 449,274.2 450.5,204 715.2,347.7 	"/>
	<path class="st1" d="M586.9,662.8l-267-169.9c-21.5,13-43,26-64.6,39c88.5,59.5,177,118.9,265.6,178.4L586.9,662.8z"/>
	<polygon class="st1" points="208.6,627.5 261.7,601.6 451.9,734.1 451.6,800.2 	"/>
	<polygon class="st1" points="809.2,627.8 740.9,587.2 583.8,706.7 581.4,798.8 	"/>
</g>
<g id="Layer_6">
	<polygon class="st2" points="310.7,498.5 255.3,531.9 251.6,459.8 	"/>
</g>
<g id="Layer_2">
	<path class="st0" d="M525.7,560.6c-0.8,25.7-1.5,51.4-2.3,77.1c-90.6-59.3-181.2-118.6-271.8-177.9l3.7,72.1l265.6,178.3l-1.4,69.5
		l-4,128L212.1,689.4l-3.5-61.9l243,172.6l0.3-66L199.2,558.1l-13-210.3L525.7,560.6z"/>
	<path class="st0" d="M893.7,728.1"/>
</g>
<g id="Layer_3">
	<polygon class="st3" points="186.3,347.8 525.7,560.6 845.3,348.1 508.5,172.3 450.5,204 715.2,347.7 522.6,470.3 253.8,307.9 	"/>
</g>
<g id="Layer_4">
	<path class="st2" d="M586.9,662.8c-1.8,45.3-3.7,90.6-5.5,136l229.5-172.3l-7,60.5L515.5,907.7c1.8-65.8,3.6-131.6,5.3-197.4"/>
	<polyline class="st2" points="523.4,637.7 525.7,560.6 845.3,348.1 839.2,421.8 589.7,592.4 	"/>
</g>
</svg>
